<?xml version="1.0" encoding="UTF-8"?>
<!-- Generator: Adobe Illustrator 24.0.2, SVG Export Plug-In . SVG Version: 6.00 Build 0)  -->
<svg version="1.1" id="Layer_1" xmlns="http://www.w3.org/2000/svg" xmlns:xlink="http://www.w3.org/1999/xlink" x="0px" y="0px" viewBox="0 0 550 550" style="enable-background:new 0 0 550 550;" xml:space="preserve">
<style type="text/css">
	.st0{fill:#4BE14E;}
</style>
<g transform="translate(0.000000,550.000000) scale(0.100000,-0.100000)">
	<path class="st0" d="M2760,5245v-53l-222-113c-123-62-248-125-278-140c-30-16-58-29-62-29c-5,0-8,56-8,125v125h-430h-430v-348v-348   l-272-138c-257-130-636-325-703-360c-28-15,70-16,1207-16h1237l3,58l3,57h1188c653,0,1187,1,1187,1c0,2-182,95-518,266   c-341,173-618,313-1017,517c-165,84-363,184-440,223c-77,38-149,74-160,81c-11,6-80,41-152,78l-133,68V5245z"/>
	<path class="st0" d="M2960,3510v-410l438-2l437-3l3-427l2-428l405-2l405-3v843v842h-845h-845V3510z"/>
	<path class="st0" d="M950,2985v-845h845h845v845v845h-845H950V2985z"/>
	<path class="st0" d="M2830,2510v-420h420h420v420v420h-420h-420V2510z"/>
	<path class="st0" d="M952,1058l3-843h840h840v840v840l-843,3l-842,2L952,1058z"/>
	<path class="st0" d="M2872,1058l3-843l843-3l842-2v845v845h-845h-845L2872,1058z"/>
</g>
</svg>